{
  "extensionsUsed": [
    "KHR_materials_transmission",
    "KHR_materials_clearcoat",
    "KHR_materials_ior",
    "KHR_materials_specular",
    "KHR_materials_emissive_strength",
    "KHR_texture_transform"
  ],
  "accessors": [
    {
      "bufferView": 0,
      "componentType": 5126,
      "count": 19524,
      "type": "VEC3",
      "max": [
        10.1,
        449.92242,
        0.099999934
      ],
      "min": [
        -0.09999983,
        -0.10000001,
        -10.1
      ]
    },
    {
      "bufferView": 1,
      "componentType": 5125,
      "count": 19524,
      "type": "SCALAR",
      "max": [
        19523.0
      ],
      "min": [
        0.0
      ]
    },
    {
      "bufferView": 2,
      "componentType": 5126,
      "count": 19524,
      "type": "VEC3",
      "max": [
        1.0,
        1.0,
        1.0
      ],
      "min": [
        -1.0,
        -1.0,
        -1.0
      ]
    },
    {
      "bufferView": 3,
      "componentType": 5126,
      "count": 19524,
      "type": "VEC2",
      "max": [
        1.0,
        1.0
      ],
      "min": [
        0.0,
        0.0
      ]
    }
  ],
  "asset": {
    "version": "2.0"
  },
  "buffers": [
    {
      "uri": "data:application/octet-stream;base64,",
      "byteLength": 234288
    },
    {
      "uri": "data:application/octet-stream;base64,",
      "byteLength": 78096
    },
    {
      "uri": "data:application/octet-stream;base64,",
      "byteLength": 234288
    },
    {
      "uri": "data:application/octet-stream;base64,",
      "byteLength": 156192
    }
  ],
  "bufferViews": [
    {
      "buffer": 0,
      "byteLength": 234288,
      "target": 34962
    },
    {
      "buffer": 1,
      "byteLength": 78096,
      "target": 34963
    },
    {
      "buffer": 2,
      "byteLength": 234288,
      "target": 34962
    },
    {
      "buffer": 3,
      "byteLength": 156192,
      "target": 34962
    }
  ],
  "materials": [
    {
      "pbrMetallicRoughness": {}
    }
  ],
  "meshes": [
    {
      "primitives": [
        {
          "attributes": {
            "POSITION": 0,
            "NORMAL": 2,
            "TEXCOORD_0": 3
          },
          "indices": 1,
          "material": 0
        }
      ]
    }
  ],
  "nodes": [
    {
      "mesh": 0
    }
  ],
  "samplers": [
    {
      "magFilter": 9729,
      "minFilter": 9729
    }
  ],
  "scene": 0,
  "scenes": [
    {
      "nodes": [
        0
      ],
      "extensions": {}
    }
  ],
  "extensions": {}
}